:FULLY-SPECIFIED
:DEGREES
1778
root 0.79831 15.6016 -2.13864 4013.01 -95.5629 -4011.1
lowerback 5.19925 0.685571 -8.51724
upperback -1.09569 0.347583 0.317181
thorax -4.1305 0.380716 5.09041
lowerneck -16.5188 0.706495 1.01847
upperneck 22.0803 1.22022 -2.96701
head 9.75488 0.216335 -1.06058
rclavicle 5.56597e-015 1.33186e-014
rhumerus -43.47 -25.9401 -68.7744
rradius 11.0638
rwrist 31.9949
rhand -27.1515 -17.2274
rfingers 7.12502
rthumb -0.566397 -47.2064
lclavicle 5.56597e-015 1.33186e-014
lhumerus -19.2269 -7.45846 90.8041
lradius 34.1149
lwrist 13.1284
lhand -32.0802 16.1166
lfingers 7.12502
lthumb -5.32613 46.0296
rfemur -30.6923 -1.20471 17.4015
rtibia 50.5469
rfoot -17.3402 -23.0924
rtoes -9.43146
lfemur -2.36679 -4.7276 -31.8415
ltibia 20.1286
lfoot -14.9189 7.35185
ltoes -7.89763
1779
root 0.812462 15.604 -2.14514 4014.46 -95.598 -4012.29
lowerback 5.10331 0.696186 -8.68408
upperback -1.17796 0.354972 0.301387
thorax -4.16601 0.392264 5.16732
lowerneck -16.5623 0.68699 1.04716
upperneck 22.0076 1.19571 -3.00222
head 9.73714 0.205067 -1.08009
rclavicle 1.98785e-015 -1.98785e-016
rhumerus -43.5017 -26.9212 -68.1566
rradius 10.7503
rwrist 33.4182
rhand -26.9822 -17.2113
rfingers 7.12502
rthumb -0.402894 -47.1907
lclavicle 1.98785e-015 -1.98785e-016
lhumerus -19.1882 -7.60965 90.7612
lradius 34.2419
lwrist 13.0674
lhand -32.1893 16.1144
lfingers 7.12502
lthumb -5.43154 46.0248
rfemur -31.0167 -0.667851 17.4118
rtibia 47.8407
rfoot -17.4167 -23.4242
rtoes -9.13294
lfemur -1.57131 -4.64199 -31.9438
ltibia 19.1944
lfoot -14.7939 7.14031
ltoes -8.01893
1780
root 0.8247 15.6119 -2.15181 4015.71 -95.663 -4013.32
lowerback 4.99489 0.712985 -8.84907
upperback -1.22599 0.373586 0.281528
thorax -4.16017 0.406412 5.23799
lowerneck -16.5874 0.666729 1.01462
upperneck 21.8884 1.17414 -2.9848
head 9.69891 0.197126 -1.07005
rclavicle -1.59028e-015 -2.46493e-014
rhumerus -43.6413 -28.2766 -67.2199
rradius 10.4605
rwrist 35.3118
rhand -26.869 -16.9932
rfingers 7.12502
rthumb -0.293575 -46.9727
lclavicle -1.59028e-015 -2.46493e-014
lhumerus -19.1735 -7.69654 90.7317
lradius 34.3326
lwrist 12.9121
lhand -32.2187 16.1244
lfingers 7.12502
lthumb -5.45992 46.0341
rfemur -31.2339 -0.0665228 17.3536
rtibia 45.053
rfoot -17.7811 -23.4315
rtoes -8.26265
lfemur -0.666199 -4.54584 -32.0604
ltibia 18.1361
lfoot -14.557 6.99856
ltoes -8.55643
1781
root 0.834665 15.6187 -2.15866 4016.87 -95.7447 -4014.23
lowerback 4.81413 0.739081 -8.9856
upperback -1.27163 0.413052 0.236333
thorax -4.11357 0.427845 5.26425
lowerneck -16.5801 0.648709 1.0165
upperneck 21.7399 1.14681 -2.97009
head 9.64437 0.189763 -1.06717
rclavicle 3.97569e-016 2.20651e-014
rhumerus -43.7499 -29.6191 -66.401
rradius 10.2278
rwrist 37.1556
rhand -26.888 -17.0744
rfingers 7.12502
rthumb -0.311903 -47.0539
lclavicle 3.97569e-016 2.20651e-014
lhumerus -19.1878 -7.77723 90.7022
lradius 34.394
lwrist 12.8855
lhand -32.3963 16.0149
lfingers 7.12502
lthumb -5.63136 45.9201
rfemur -31.4238 0.633709 17.2069
rtibia 42.1995
rfoot -17.6931 -23.3207
rtoes -8.45126
lfemur 0.256331 -4.43736 -32.1777
ltibia 17.0118
lfoot -14.3012 6.83721
ltoes -9.41095
1782
root 0.846016 15.6306 -2.1662 4018.43 -95.7799 -4015.49
lowerback 4.65203 0.741116 -9.08677
upperback -1.35524 0.41923 0.190634
thorax -4.1119 0.435137 5.2728
lowerneck -16.6205 0.637448 1.02905
upperneck 21.6782 1.12989 -2.97169
head 9.62983 0.184318 -1.07135
rclavicle -3.37934e-015 2.98177e-015
rhumerus -43.5754 -30.3936 -66.1669
rradius 10.0783
rwrist 37.9561
rhand -26.8062 -17.107
rfingers 7.12502
rthumb -0.232888 -47.0866
lclavicle -3.37934e-015 2.98177e-015
lhumerus -19.2449 -7.89961 90.682
lradius 34.4072
lwrist 12.8486
lhand -32.4662 15.9033
lfingers 7.12502
lthumb -5.6989 45.8067
rfemur -31.5836 1.24104 17.0695
rtibia 39.293
rfoot -17.5563 -22.9324
rtoes -8.77905
lfemur 1.22573 -4.38543 -32.2441
ltibia 15.6873
lfoot -13.9784 6.53687
ltoes -9.66378
1783
root 0.85443 15.6438 -2.17386 4019.76 -95.8555 -4016.52
lowerback 4.44652 0.739795 -9.2337
upperback -1.44134 0.423817 0.16731
thorax -4.08892 0.442304 5.33108
lowerneck -16.5926 0.634669 1.0256
upperneck 21.5825 1.13312 -2.99456
head 9.59116 0.18496 -1.07727
rclavicle -5.76476e-015 -3.45885e-014
rhumerus -43.2462 -30.6286 -66.3549
rradius 10.0628
rwrist 38.3601
rhand -26.9494 -17.0442
rfingers 7.12502
rthumb -0.371237 -47.0236
lclavicle -5.76476e-015 -3.45885e-014
lhumerus -19.4067 -7.86953 90.7014
lradius 34.4167
lwrist 12.6951
lhand -32.5427 15.8475
lfingers 7.12502
lthumb -5.77273 45.7488
rfemur -31.7064 1.96974 16.8271
rtibia 36.3722
rfoot -17.3791 -22.3203
rtoes -9.31871
lfemur 2.26281 -4.3132 -32.3319
ltibia 14.2462
lfoot -13.4856 6.25031
ltoes -10.5151
1784
root 0.861656 15.6538 -2.18348 4021.12 -95.9095 -4017.56
lowerback 4.22925 0.755668 -9.32812
upperback -1.49932 0.457202 0.131396
thorax -4.03336 0.459786 5.34428
lowerneck -16.68 0.606008 1.00335
upperneck 21.5099 1.10938 -3.02631
head 9.5815 0.170085 -1.08691
rclavicle -6.36111e-015 2.00773e-014
rhumerus -42.9059 -31.1448 -66.4522
rradius 10.0662
rwrist 38.5484
rhand -27.0919 -16.8109
rfingers 7.12502
rthumb -0.508894 -46.7901
lclavicle -6.36111e-015 2.00773e-014
lhumerus -19.5388 -7.96066 90.7335
lradius 34.4081
lwrist 12.7587
lhand -32.551 15.811
lfingers 7.12502
lthumb -5.78072 45.7122
rfemur -31.8095 2.93702 16.4717
rtibia 33.5139
rfoot -17.305 -21.7537
rtoes -10.2086
lfemur 3.41469 -4.20231 -32.3717
ltibia 12.6048
lfoot -12.9232 5.85118
ltoes -10.8372
1785
root 0.868073 15.6655 -2.19323 4022.5 -95.9221 -4018.62
lowerback 4.05287 0.789079 -9.32045
upperback -1.57702 0.513429 0.0676027
thorax -4.02358 0.488273 5.26863
lowerneck -16.8521 0.553406 0.977778
upperneck 21.5149 1.04678 -3.02695
head 9.61378 0.139028 -1.09113
rclavicle -1.15295e-014 1.59028e-014
rhumerus -42.1458 -31.0517 -67.3731
rradius 10.2348
rwrist 37.4391
rhand -27.2381 -17.1611
rfingers 7.12502
rthumb -0.650008 -47.1398
lclavicle -1.15295e-014 1.59028e-014
lhumerus -19.7107 -8.18401 90.7797
lradius 34.3691
lwrist 12.8743
lhand -32.6155 15.8661
lfingers 7.12502
lthumb -5.84304 45.7656
rfemur -31.8878 4.13928 16.0359
rtibia 30.7705
rfoot -17.2735 -21.5133
rtoes -11.4839
lfemur 4.65472 -4.1466 -32.373
ltibia 10.7779
lfoot -12.1896 5.48624
ltoes -11.9153
1786
root 0.872332 15.6781 -2.20364 4024.29 -95.97 -4020.16
lowerback 3.8678 0.776504 -9.41568
upperback -1.64394 0.504794 0.0225395
thorax -3.98892 0.485906 5.27604
lowerneck -16.8927 0.531747 0.968352
upperneck 21.5089 1.02425 -3.04394
head 9.61878 0.126053 -1.09837
rclavicle -1.03368e-014 1.27222e-014
rhumerus -41.2764 -30.3844 -68.6413
rradius 10.5577
rwrist 36.0467
rhand -27.2667 -17.2896
rfingers 7.12502
rthumb -0.677656 -47.2683
lclavicle -1.03368e-014 1.27222e-014
lhumerus -19.9614 -8.20401 90.8224
lradius 34.2629
lwrist 12.8946
lhand -32.5775 15.9063
lfingers 7.12502
lthumb -5.80635 45.8068
rfemur -31.9754 5.74457 15.3337
rtibia 28.291
rfoot -17.4902 -21.7534
rtoes -12.296
lfemur 6.10828 -3.97295 -32.4007
ltibia 8.67812
lfoot -11.3952 4.95394
ltoes -12.3762
1787
root 0.875178 15.6956 -2.21528 4026.14 -96.0229 -4021.71
lowerback 3.65503 0.775658 -9.49921
upperback -1.74793 0.513524 -0.0220606
thorax -3.98034 0.494245 5.27599
lowerneck -16.8574 0.518483 0.940921
upperneck 21.4637 1.01934 -3.0691
head 9.59627 0.119599 -1.10264
rclavicle -1.39149e-015 1.78906e-015
rhumerus -40.3291 -29.3433 -70.1636
rradius 10.9394
rwrist 33.9222
rhand -27.5407 -17.524
rfingers 7.12502
rthumb -0.942275 -47.5017
lclavicle -1.39149e-015 1.78906e-015
lhumerus -20.319 -8.2399 90.9244
lradius 34.129
lwrist 12.8894
lhand -32.6843 15.7759
lfingers 7.12502
lthumb -5.90946 45.6735
rfemur -32.1969 7.64051 14.4607
rtibia 26.1565
rfoot -18.1644 -22.4953
rtoes -12.0162
lfemur 7.73876 -3.81579 -32.4112
ltibia 6.13513
lfoot -10.3093 4.37587
ltoes -12.3962
